<mxfile host="app.diagrams.net" modified="2020-08-31T13:24:50.379Z" agent="5.0 (Macintosh; Intel Mac OS X 10_15_6) AppleWebKit/537.36 (KHTML, like Gecko) Chrome/84.0.4147.135 Safari/537.36" etag="Jz9TgbGRv8n11xouRBp7" version="13.6.5" type="github">
  <diagram name="Page-1" id="7e0a89b8-554c-2b80-1dc8-d5c74ca68de4">
    <mxGraphModel dx="1871" dy="1106" grid="1" gridSize="20" guides="1" tooltips="1" connect="1" arrows="1" fold="1" page="1" pageScale="1" pageWidth="1169" pageHeight="827" background="#ffffff" math="0" shadow="0">
      <root>
        <mxCell id="0" />
        <mxCell id="1" parent="0" />
        <mxCell id="z57TRM4tiPEyz4uaF-A9-16" value="" style="rounded=0;whiteSpace=wrap;html=1;" vertex="1" parent="1">
          <mxGeometry x="40" y="80" width="1020" height="60" as="geometry" />
        </mxCell>
        <mxCell id="z57TRM4tiPEyz4uaF-A9-17" value="" style="endArrow=none;html=1;" edge="1" parent="1">
          <mxGeometry width="50" height="50" relative="1" as="geometry">
            <mxPoint x="150" y="140" as="sourcePoint" />
            <mxPoint x="150" y="80" as="targetPoint" />
          </mxGeometry>
        </mxCell>
        <mxCell id="z57TRM4tiPEyz4uaF-A9-18" value="" style="endArrow=none;html=1;" edge="1" parent="1">
          <mxGeometry width="50" height="50" relative="1" as="geometry">
            <mxPoint x="262" y="140" as="sourcePoint" />
            <mxPoint x="262" y="80" as="targetPoint" />
          </mxGeometry>
        </mxCell>
        <mxCell id="z57TRM4tiPEyz4uaF-A9-19" value="" style="ellipse;whiteSpace=wrap;html=1;fillColor=#f8cecc;strokeColor=#b85450;" vertex="1" parent="1">
          <mxGeometry x="70" y="90" width="50" height="50" as="geometry" />
        </mxCell>
        <mxCell id="z57TRM4tiPEyz4uaF-A9-20" value="" style="endArrow=none;html=1;" edge="1" parent="1">
          <mxGeometry width="50" height="50" relative="1" as="geometry">
            <mxPoint x="360" y="140" as="sourcePoint" />
            <mxPoint x="360" y="80" as="targetPoint" />
          </mxGeometry>
        </mxCell>
        <mxCell id="z57TRM4tiPEyz4uaF-A9-21" value="" style="endArrow=none;html=1;" edge="1" parent="1">
          <mxGeometry width="50" height="50" relative="1" as="geometry">
            <mxPoint x="470" y="140" as="sourcePoint" />
            <mxPoint x="470" y="80" as="targetPoint" />
          </mxGeometry>
        </mxCell>
        <mxCell id="z57TRM4tiPEyz4uaF-A9-22" value="" style="endArrow=none;html=1;" edge="1" parent="1">
          <mxGeometry width="50" height="50" relative="1" as="geometry">
            <mxPoint x="550" y="140" as="sourcePoint" />
            <mxPoint x="550" y="80" as="targetPoint" />
          </mxGeometry>
        </mxCell>
        <mxCell id="z57TRM4tiPEyz4uaF-A9-23" value="" style="endArrow=none;html=1;" edge="1" parent="1">
          <mxGeometry width="50" height="50" relative="1" as="geometry">
            <mxPoint x="660" y="140" as="sourcePoint" />
            <mxPoint x="660" y="80" as="targetPoint" />
          </mxGeometry>
        </mxCell>
        <mxCell id="z57TRM4tiPEyz4uaF-A9-24" value="" style="endArrow=none;html=1;" edge="1" parent="1">
          <mxGeometry width="50" height="50" relative="1" as="geometry">
            <mxPoint x="740" y="140" as="sourcePoint" />
            <mxPoint x="740" y="80" as="targetPoint" />
          </mxGeometry>
        </mxCell>
        <mxCell id="z57TRM4tiPEyz4uaF-A9-25" value="" style="endArrow=none;html=1;" edge="1" parent="1">
          <mxGeometry width="50" height="50" relative="1" as="geometry">
            <mxPoint x="840" y="140" as="sourcePoint" />
            <mxPoint x="840" y="80" as="targetPoint" />
          </mxGeometry>
        </mxCell>
        <mxCell id="z57TRM4tiPEyz4uaF-A9-26" value="" style="endArrow=none;html=1;" edge="1" parent="1">
          <mxGeometry width="50" height="50" relative="1" as="geometry">
            <mxPoint x="940" y="140" as="sourcePoint" />
            <mxPoint x="940" y="80" as="targetPoint" />
          </mxGeometry>
        </mxCell>
        <mxCell id="z57TRM4tiPEyz4uaF-A9-27" value="" style="group" vertex="1" connectable="0" parent="1">
          <mxGeometry x="152" y="140" width="110.00000000000023" height="580" as="geometry" />
        </mxCell>
        <mxCell id="z57TRM4tiPEyz4uaF-A9-2" value="" style="rounded=0;whiteSpace=wrap;html=1;fillColor=#f5f5f5;strokeColor=#666666;fontColor=#333333;" vertex="1" parent="z57TRM4tiPEyz4uaF-A9-27">
          <mxGeometry width="110" height="580" as="geometry" />
        </mxCell>
        <mxCell id="z57TRM4tiPEyz4uaF-A9-3" value="" style="ellipse;whiteSpace=wrap;html=1;fillColor=#f8cecc;strokeColor=#b85450;" vertex="1" parent="z57TRM4tiPEyz4uaF-A9-27">
          <mxGeometry x="30" y="20" width="50" height="50" as="geometry" />
        </mxCell>
        <mxCell id="z57TRM4tiPEyz4uaF-A9-4" value="" style="ellipse;whiteSpace=wrap;html=1;fillColor=#f8cecc;strokeColor=#b85450;" vertex="1" parent="z57TRM4tiPEyz4uaF-A9-27">
          <mxGeometry x="30" y="100" width="50" height="50" as="geometry" />
        </mxCell>
        <mxCell id="z57TRM4tiPEyz4uaF-A9-6" value="" style="endArrow=none;html=1;entryX=0.991;entryY=0.348;entryDx=0;entryDy=0;exitX=0;exitY=0.348;exitDx=0;exitDy=0;entryPerimeter=0;exitPerimeter=0;" edge="1" parent="z57TRM4tiPEyz4uaF-A9-27">
          <mxGeometry width="50" height="50" relative="1" as="geometry">
            <mxPoint y="80" as="sourcePoint" />
            <mxPoint x="109.01000000000022" y="80" as="targetPoint" />
          </mxGeometry>
        </mxCell>
        <mxCell id="z57TRM4tiPEyz4uaF-A9-7" value="" style="endArrow=none;html=1;entryX=0.991;entryY=0.348;entryDx=0;entryDy=0;exitX=0;exitY=0.348;exitDx=0;exitDy=0;entryPerimeter=0;exitPerimeter=0;" edge="1" parent="z57TRM4tiPEyz4uaF-A9-27">
          <mxGeometry width="50" height="50" relative="1" as="geometry">
            <mxPoint y="165" as="sourcePoint" />
            <mxPoint x="109.01000000000022" y="165" as="targetPoint" />
          </mxGeometry>
        </mxCell>
        <mxCell id="z57TRM4tiPEyz4uaF-A9-8" value="" style="endArrow=none;html=1;entryX=0.991;entryY=0.348;entryDx=0;entryDy=0;exitX=0;exitY=0.348;exitDx=0;exitDy=0;entryPerimeter=0;exitPerimeter=0;" edge="1" parent="z57TRM4tiPEyz4uaF-A9-27">
          <mxGeometry width="50" height="50" relative="1" as="geometry">
            <mxPoint y="240" as="sourcePoint" />
            <mxPoint x="109.01000000000022" y="240" as="targetPoint" />
          </mxGeometry>
        </mxCell>
        <mxCell id="z57TRM4tiPEyz4uaF-A9-9" value="" style="ellipse;whiteSpace=wrap;html=1;fillColor=#f8cecc;strokeColor=#b85450;" vertex="1" parent="z57TRM4tiPEyz4uaF-A9-27">
          <mxGeometry x="30" y="180" width="50" height="50" as="geometry" />
        </mxCell>
        <mxCell id="z57TRM4tiPEyz4uaF-A9-10" value="" style="endArrow=none;html=1;entryX=0.991;entryY=0.348;entryDx=0;entryDy=0;exitX=0;exitY=0.348;exitDx=0;exitDy=0;entryPerimeter=0;exitPerimeter=0;" edge="1" parent="z57TRM4tiPEyz4uaF-A9-27">
          <mxGeometry width="50" height="50" relative="1" as="geometry">
            <mxPoint y="319.5" as="sourcePoint" />
            <mxPoint x="109.01000000000022" y="319.5" as="targetPoint" />
          </mxGeometry>
        </mxCell>
        <mxCell id="z57TRM4tiPEyz4uaF-A9-12" value="" style="endArrow=none;html=1;entryX=0.991;entryY=0.348;entryDx=0;entryDy=0;exitX=0;exitY=0.348;exitDx=0;exitDy=0;entryPerimeter=0;exitPerimeter=0;" edge="1" parent="z57TRM4tiPEyz4uaF-A9-27">
          <mxGeometry width="50" height="50" relative="1" as="geometry">
            <mxPoint y="400" as="sourcePoint" />
            <mxPoint x="109.01000000000022" y="400" as="targetPoint" />
          </mxGeometry>
        </mxCell>
        <mxCell id="z57TRM4tiPEyz4uaF-A9-13" value="" style="ellipse;whiteSpace=wrap;html=1;fillColor=#f8cecc;strokeColor=#b85450;" vertex="1" parent="z57TRM4tiPEyz4uaF-A9-27">
          <mxGeometry x="30" y="340" width="50" height="50" as="geometry" />
        </mxCell>
        <mxCell id="z57TRM4tiPEyz4uaF-A9-14" value="" style="endArrow=none;html=1;entryX=0.991;entryY=0.348;entryDx=0;entryDy=0;exitX=0;exitY=0.348;exitDx=0;exitDy=0;entryPerimeter=0;exitPerimeter=0;" edge="1" parent="z57TRM4tiPEyz4uaF-A9-27">
          <mxGeometry width="50" height="50" relative="1" as="geometry">
            <mxPoint x="0.9900000000000091" y="480" as="sourcePoint" />
            <mxPoint x="110.00000000000023" y="480" as="targetPoint" />
          </mxGeometry>
        </mxCell>
        <mxCell id="z57TRM4tiPEyz4uaF-A9-15" value="" style="ellipse;whiteSpace=wrap;html=1;fillColor=#f8cecc;strokeColor=#b85450;" vertex="1" parent="z57TRM4tiPEyz4uaF-A9-27">
          <mxGeometry x="30.99000000000001" y="420" width="50" height="50" as="geometry" />
        </mxCell>
        <mxCell id="z57TRM4tiPEyz4uaF-A9-28" value="" style="group" vertex="1" connectable="0" parent="1">
          <mxGeometry x="360" y="140" width="110.00000000000023" height="580" as="geometry" />
        </mxCell>
        <mxCell id="z57TRM4tiPEyz4uaF-A9-29" value="" style="rounded=0;whiteSpace=wrap;html=1;fillColor=#f5f5f5;strokeColor=#666666;fontColor=#333333;" vertex="1" parent="z57TRM4tiPEyz4uaF-A9-28">
          <mxGeometry width="110" height="580" as="geometry" />
        </mxCell>
        <mxCell id="z57TRM4tiPEyz4uaF-A9-30" value="" style="ellipse;whiteSpace=wrap;html=1;fillColor=#f8cecc;strokeColor=#b85450;" vertex="1" parent="z57TRM4tiPEyz4uaF-A9-28">
          <mxGeometry x="30" y="20" width="50" height="50" as="geometry" />
        </mxCell>
        <mxCell id="z57TRM4tiPEyz4uaF-A9-32" value="" style="endArrow=none;html=1;entryX=0.991;entryY=0.348;entryDx=0;entryDy=0;exitX=0;exitY=0.348;exitDx=0;exitDy=0;entryPerimeter=0;exitPerimeter=0;" edge="1" parent="z57TRM4tiPEyz4uaF-A9-28">
          <mxGeometry width="50" height="50" relative="1" as="geometry">
            <mxPoint y="80" as="sourcePoint" />
            <mxPoint x="109.01000000000022" y="80" as="targetPoint" />
          </mxGeometry>
        </mxCell>
        <mxCell id="z57TRM4tiPEyz4uaF-A9-33" value="" style="endArrow=none;html=1;entryX=0.991;entryY=0.348;entryDx=0;entryDy=0;exitX=0;exitY=0.348;exitDx=0;exitDy=0;entryPerimeter=0;exitPerimeter=0;" edge="1" parent="z57TRM4tiPEyz4uaF-A9-28">
          <mxGeometry width="50" height="50" relative="1" as="geometry">
            <mxPoint y="165" as="sourcePoint" />
            <mxPoint x="109.01000000000022" y="165" as="targetPoint" />
          </mxGeometry>
        </mxCell>
        <mxCell id="z57TRM4tiPEyz4uaF-A9-34" value="" style="endArrow=none;html=1;entryX=0.991;entryY=0.348;entryDx=0;entryDy=0;exitX=0;exitY=0.348;exitDx=0;exitDy=0;entryPerimeter=0;exitPerimeter=0;" edge="1" parent="z57TRM4tiPEyz4uaF-A9-28">
          <mxGeometry width="50" height="50" relative="1" as="geometry">
            <mxPoint y="240" as="sourcePoint" />
            <mxPoint x="109.01000000000022" y="240" as="targetPoint" />
          </mxGeometry>
        </mxCell>
        <mxCell id="z57TRM4tiPEyz4uaF-A9-35" value="" style="ellipse;whiteSpace=wrap;html=1;fillColor=#f8cecc;strokeColor=#b85450;" vertex="1" parent="z57TRM4tiPEyz4uaF-A9-28">
          <mxGeometry x="30" y="180" width="50" height="50" as="geometry" />
        </mxCell>
        <mxCell id="z57TRM4tiPEyz4uaF-A9-36" value="" style="endArrow=none;html=1;entryX=0.991;entryY=0.348;entryDx=0;entryDy=0;exitX=0;exitY=0.348;exitDx=0;exitDy=0;entryPerimeter=0;exitPerimeter=0;" edge="1" parent="z57TRM4tiPEyz4uaF-A9-28">
          <mxGeometry width="50" height="50" relative="1" as="geometry">
            <mxPoint y="319.5" as="sourcePoint" />
            <mxPoint x="109.01000000000022" y="319.5" as="targetPoint" />
          </mxGeometry>
        </mxCell>
        <mxCell id="z57TRM4tiPEyz4uaF-A9-37" value="" style="ellipse;whiteSpace=wrap;html=1;fillColor=#f8cecc;strokeColor=#b85450;" vertex="1" parent="z57TRM4tiPEyz4uaF-A9-28">
          <mxGeometry x="30" y="259.5" width="50" height="50" as="geometry" />
        </mxCell>
        <mxCell id="z57TRM4tiPEyz4uaF-A9-38" value="" style="endArrow=none;html=1;entryX=0.991;entryY=0.348;entryDx=0;entryDy=0;exitX=0;exitY=0.348;exitDx=0;exitDy=0;entryPerimeter=0;exitPerimeter=0;" edge="1" parent="z57TRM4tiPEyz4uaF-A9-28">
          <mxGeometry width="50" height="50" relative="1" as="geometry">
            <mxPoint y="400" as="sourcePoint" />
            <mxPoint x="109.01000000000022" y="400" as="targetPoint" />
          </mxGeometry>
        </mxCell>
        <mxCell id="z57TRM4tiPEyz4uaF-A9-39" value="" style="ellipse;whiteSpace=wrap;html=1;fillColor=#f8cecc;strokeColor=#b85450;" vertex="1" parent="z57TRM4tiPEyz4uaF-A9-28">
          <mxGeometry x="30" y="340" width="50" height="50" as="geometry" />
        </mxCell>
        <mxCell id="z57TRM4tiPEyz4uaF-A9-40" value="" style="endArrow=none;html=1;entryX=0.991;entryY=0.348;entryDx=0;entryDy=0;exitX=0;exitY=0.348;exitDx=0;exitDy=0;entryPerimeter=0;exitPerimeter=0;" edge="1" parent="z57TRM4tiPEyz4uaF-A9-28">
          <mxGeometry width="50" height="50" relative="1" as="geometry">
            <mxPoint x="0.9900000000000091" y="480" as="sourcePoint" />
            <mxPoint x="110.00000000000023" y="480" as="targetPoint" />
          </mxGeometry>
        </mxCell>
        <mxCell id="z57TRM4tiPEyz4uaF-A9-41" value="" style="ellipse;whiteSpace=wrap;html=1;fillColor=#f8cecc;strokeColor=#b85450;" vertex="1" parent="z57TRM4tiPEyz4uaF-A9-28">
          <mxGeometry x="30.99000000000001" y="420" width="50" height="50" as="geometry" />
        </mxCell>
        <mxCell id="z57TRM4tiPEyz4uaF-A9-42" value="" style="group" vertex="1" connectable="0" parent="1">
          <mxGeometry x="550" y="140" width="110.00000000000023" height="580" as="geometry" />
        </mxCell>
        <mxCell id="z57TRM4tiPEyz4uaF-A9-43" value="" style="rounded=0;whiteSpace=wrap;html=1;fillColor=#f5f5f5;strokeColor=#666666;fontColor=#333333;" vertex="1" parent="z57TRM4tiPEyz4uaF-A9-42">
          <mxGeometry width="110" height="580" as="geometry" />
        </mxCell>
        <mxCell id="z57TRM4tiPEyz4uaF-A9-44" value="" style="ellipse;whiteSpace=wrap;html=1;fillColor=#f8cecc;strokeColor=#b85450;" vertex="1" parent="z57TRM4tiPEyz4uaF-A9-42">
          <mxGeometry x="30" y="20" width="50" height="50" as="geometry" />
        </mxCell>
        <mxCell id="z57TRM4tiPEyz4uaF-A9-45" value="" style="ellipse;whiteSpace=wrap;html=1;fillColor=#f8cecc;strokeColor=#b85450;" vertex="1" parent="z57TRM4tiPEyz4uaF-A9-42">
          <mxGeometry x="30" y="100" width="50" height="50" as="geometry" />
        </mxCell>
        <mxCell id="z57TRM4tiPEyz4uaF-A9-46" value="" style="endArrow=none;html=1;entryX=0.991;entryY=0.348;entryDx=0;entryDy=0;exitX=0;exitY=0.348;exitDx=0;exitDy=0;entryPerimeter=0;exitPerimeter=0;" edge="1" parent="z57TRM4tiPEyz4uaF-A9-42">
          <mxGeometry width="50" height="50" relative="1" as="geometry">
            <mxPoint y="80" as="sourcePoint" />
            <mxPoint x="109.01000000000022" y="80" as="targetPoint" />
          </mxGeometry>
        </mxCell>
        <mxCell id="z57TRM4tiPEyz4uaF-A9-47" value="" style="endArrow=none;html=1;entryX=0.991;entryY=0.348;entryDx=0;entryDy=0;exitX=0;exitY=0.348;exitDx=0;exitDy=0;entryPerimeter=0;exitPerimeter=0;" edge="1" parent="z57TRM4tiPEyz4uaF-A9-42">
          <mxGeometry width="50" height="50" relative="1" as="geometry">
            <mxPoint y="165" as="sourcePoint" />
            <mxPoint x="109.01000000000022" y="165" as="targetPoint" />
          </mxGeometry>
        </mxCell>
        <mxCell id="z57TRM4tiPEyz4uaF-A9-48" value="" style="endArrow=none;html=1;entryX=0.991;entryY=0.348;entryDx=0;entryDy=0;exitX=0;exitY=0.348;exitDx=0;exitDy=0;entryPerimeter=0;exitPerimeter=0;" edge="1" parent="z57TRM4tiPEyz4uaF-A9-42">
          <mxGeometry width="50" height="50" relative="1" as="geometry">
            <mxPoint y="240" as="sourcePoint" />
            <mxPoint x="109.01000000000022" y="240" as="targetPoint" />
          </mxGeometry>
        </mxCell>
        <mxCell id="z57TRM4tiPEyz4uaF-A9-50" value="" style="endArrow=none;html=1;entryX=0.991;entryY=0.348;entryDx=0;entryDy=0;exitX=0;exitY=0.348;exitDx=0;exitDy=0;entryPerimeter=0;exitPerimeter=0;" edge="1" parent="z57TRM4tiPEyz4uaF-A9-42">
          <mxGeometry width="50" height="50" relative="1" as="geometry">
            <mxPoint y="319.5" as="sourcePoint" />
            <mxPoint x="109.01000000000022" y="319.5" as="targetPoint" />
          </mxGeometry>
        </mxCell>
        <mxCell id="z57TRM4tiPEyz4uaF-A9-51" value="" style="ellipse;whiteSpace=wrap;html=1;fillColor=#f8cecc;strokeColor=#b85450;" vertex="1" parent="z57TRM4tiPEyz4uaF-A9-42">
          <mxGeometry x="30" y="259.5" width="50" height="50" as="geometry" />
        </mxCell>
        <mxCell id="z57TRM4tiPEyz4uaF-A9-52" value="" style="endArrow=none;html=1;entryX=0.991;entryY=0.348;entryDx=0;entryDy=0;exitX=0;exitY=0.348;exitDx=0;exitDy=0;entryPerimeter=0;exitPerimeter=0;" edge="1" parent="z57TRM4tiPEyz4uaF-A9-42">
          <mxGeometry width="50" height="50" relative="1" as="geometry">
            <mxPoint y="400" as="sourcePoint" />
            <mxPoint x="109.01000000000022" y="400" as="targetPoint" />
          </mxGeometry>
        </mxCell>
        <mxCell id="z57TRM4tiPEyz4uaF-A9-54" value="" style="endArrow=none;html=1;entryX=0.991;entryY=0.348;entryDx=0;entryDy=0;exitX=0;exitY=0.348;exitDx=0;exitDy=0;entryPerimeter=0;exitPerimeter=0;" edge="1" parent="z57TRM4tiPEyz4uaF-A9-42">
          <mxGeometry width="50" height="50" relative="1" as="geometry">
            <mxPoint x="0.9900000000000091" y="480" as="sourcePoint" />
            <mxPoint x="110.00000000000023" y="480" as="targetPoint" />
          </mxGeometry>
        </mxCell>
        <mxCell id="z57TRM4tiPEyz4uaF-A9-55" value="" style="ellipse;whiteSpace=wrap;html=1;fillColor=#f8cecc;strokeColor=#b85450;" vertex="1" parent="z57TRM4tiPEyz4uaF-A9-42">
          <mxGeometry x="30.99000000000001" y="420" width="50" height="50" as="geometry" />
        </mxCell>
      </root>
    </mxGraphModel>
  </diagram>
</mxfile>
